<?xml version="1.0" encoding="utf-8"?>
<!-- Generator: Adobe Illustrator 19.0.0, SVG Export Plug-In . SVG Version: 6.00 Build 0)  -->
<svg version="1.1" id="Layer_2" xmlns="http://www.w3.org/2000/svg" xmlns:xlink="http://www.w3.org/1999/xlink" x="0px" y="0px"
	 viewBox="0 0 448.8 259.3" style="enable-background:new 0 0 448.8 259.3;" xml:space="preserve">
<style type="text/css">
	.st0{fill:#008CE1;}
	.st1{fill:#008C00;}
</style>
<g id="XMLID_1_">
	<g id="XMLID_37_">
		<path id="XMLID_50_" class="st0" d="M149,12.6c33.9,0,61.5,27.6,61.5,61.5s-27.6,61.5-61.5,61.5S87.5,108,87.5,74.1
			S115.1,12.6,149,12.6 M149,8.6c-36.2,0-65.5,29.3-65.5,65.5s29.3,65.5,65.5,65.5s65.5-29.3,65.5-65.5S185.2,8.6,149,8.6L149,8.6z"
			/>
	</g>
	<path id="XMLID_36_" class="st1" d="M372.3,67.3c0-37-43.9-67.3-97.9-67.3c0,0-19.2-0.5-24.4,1.7c0,0,54,17.1,54,65.2
		s0,154.1,0,154.1h68.5L372.3,67.3z"/>
	<path id="XMLID_39_" class="st1" d="M449.3,67.3c0-37-43.9-67.3-97.9-67.3c0,0-19.2-0.5-24.4,1.7c0,0,54,17.1,54,65.2
		s0,154.1,0,154.1h68.5L449.3,67.3z"/>
	<path id="XMLID_40_" class="st1" d="M297.3,67.8c0-37-43.9-67.5-97.9-67.5c0,0-19.7-0.6-24.9,1.5c0,0,53.5,17,53.5,65
		s0,155.1,0,155.1h69.5L297.3,67.8z"/>
	<path id="XMLID_41_" class="st1" d="M0.2,67.8c0-37,43.9-67.5,97.9-67.5c0,0,18.9-0.6,24.1,1.5c0,0-54.2,17-54.2,65S68,222,68,222
		H0L0.2,67.8z"/>
	<g id="XMLID_5_">
		<path id="XMLID_7_" class="st0" d="M33.1,231.3H21.8v28h-9v-28H1.5V225h31.6V231.3z"/>
		<path id="XMLID_9_" class="st0" d="M47.4,259.3h-9V225h9V259.3z"/>
		<path id="XMLID_11_" class="st0" d="M89.8,259.3H79.5l-6.2-8.8c-0.5-0.7-0.9-1.3-1.3-1.8c-0.4-0.5-0.9-1-1.3-1.4
			c-0.4-0.4-0.9-0.7-1.4-0.9c-0.5-0.2-1-0.3-1.5-0.3h-2.4v13.1h-9V225h14.2c9.6,0,14.5,3.1,14.5,9.3c0,1.2-0.2,2.3-0.6,3.3
			c-0.4,1-1,1.9-1.8,2.7c-0.8,0.8-1.7,1.5-2.8,2.1c-1.1,0.6-2.3,1.1-3.7,1.4v0.1c0.6,0.2,1.2,0.4,1.7,0.8c0.6,0.4,1.1,0.8,1.6,1.3
			c0.5,0.5,1,1,1.5,1.5c0.5,0.6,0.9,1.1,1.3,1.6L89.8,259.3z M65.4,230.8v9.5h3.9c1.9,0,3.5-0.5,4.6-1.4c1.2-1,1.8-2.2,1.8-3.6
			c0-3-2.1-4.5-6.2-4.5H65.4z"/>
		<path id="XMLID_14_" class="st0" d="M120.3,231.3H109v28h-9v-28H88.7V225h31.6V231.3z"/>
		<path id="XMLID_16_" class="st0" d="M156.7,259.3h-9.8l-2.8-7.6h-14.1l-2.8,7.6h-9.7l14.5-34.3h10.6L156.7,259.3z M142,245.8
			l-4.3-11.5c-0.3-0.9-0.5-1.9-0.7-3.1h-0.2c-0.1,1-0.3,2-0.7,3l-4.3,11.6H142z"/>
		<path id="XMLID_19_" class="st0" d="M212.2,259.3h-9.8l-2.8-7.6h-14.1l-2.8,7.6H173l14.5-34.3h10.6L212.2,259.3z M197.6,245.8
			l-4.3-11.5c-0.3-0.9-0.5-1.9-0.7-3.1h-0.2c-0.1,1-0.3,2-0.7,3l-4.3,11.6H197.6z"/>
		<path id="XMLID_22_" class="st0" d="M253,259.3h-9l-16.4-21.6c-1-1.3-1.6-2.2-2-2.8h-0.1c0.1,1.2,0.2,3.1,0.2,5.6v18.9h-8.5V225
			h9.6l15.8,20.9c0.7,0.9,1.4,1.9,2,2.8h0.1c-0.1-0.8-0.2-2.4-0.2-4.7v-19h8.5V259.3z"/>
		<path id="XMLID_24_" class="st0" d="M290,231.3h-11.3v28h-9v-28h-11.3V225H290V231.3z"/>
		<path id="XMLID_26_" class="st0" d="M310,259.9c-5.7,0-10.3-1.6-13.9-4.8c-3.6-3.2-5.4-7.4-5.4-12.5c0-5.4,1.8-9.8,5.5-13.2
			s8.5-5,14.5-5c5.7,0,10.3,1.6,13.8,4.8c3.5,3.2,5.3,7.4,5.3,12.7c0,5.4-1.8,9.7-5.4,13C320.6,258.3,315.9,259.9,310,259.9z
			 M310.4,231.1c-3.1,0-5.6,1-7.5,3.1c-1.8,2-2.8,4.7-2.8,8.1c0,3.4,0.9,6.1,2.8,8.1c1.8,2,4.3,3,7.3,3c3.1,0,5.5-1,7.3-2.9
			c1.8-1.9,2.7-4.6,2.7-8c0-3.6-0.9-6.3-2.6-8.3C315.9,232.1,313.5,231.1,310.4,231.1z"/>
		<path id="XMLID_29_" class="st0" d="M369.3,259.3H358l-11.6-14.9c-0.2-0.3-0.6-0.9-1.1-1.9h-0.1v16.8h-9V225h9v16.2h0.1
			c0.2-0.4,0.6-1.1,1.1-1.9l11-14.3h10.7l-13.9,16.4L369.3,259.3z"/>
		<path id="XMLID_31_" class="st0" d="M408.1,259.3h-9.8l-2.8-7.6h-14.1l-2.8,7.6h-9.7l14.5-34.3h10.6L408.1,259.3z M393.4,245.8
			l-4.3-11.5c-0.3-0.9-0.5-1.9-0.7-3.1h-0.2c-0.1,1-0.3,2-0.7,3l-4.3,11.6H393.4z"/>
		<path id="XMLID_34_" class="st0" d="M448.8,259.3h-9l-16.4-21.6c-1-1.3-1.6-2.2-2-2.8h-0.1c0.1,1.2,0.2,3.1,0.2,5.6v18.9H413V225
			h9.6l15.8,20.9c0.7,0.9,1.4,1.9,2,2.8h0.1c-0.1-0.8-0.2-2.4-0.2-4.7v-19h8.5V259.3z"/>
	</g>
	<circle id="XMLID_6_" class="st0" cx="149" cy="74.3" r="55"/>
</g>
</svg>
